<?xml version="1.0" encoding="utf-8"?>
<!-- Generator: Adobe Illustrator 16.0.0, SVG Export Plug-In . SVG Version: 6.00 Build 0)  -->
<!DOCTYPE svg PUBLIC "-//W3C//DTD SVG 1.1//EN" "http://www.w3.org/Graphics/SVG/1.1/DTD/svg11.dtd">
<svg version="1.1" id="Layer_1" xmlns="http://www.w3.org/2000/svg" xmlns:xlink="http://www.w3.org/1999/xlink" x="0px" y="0px"
	 width="273px" height="353px" viewBox="0 0 273 353" enable-background="new 0 0 273 353" xml:space="preserve">
<g>
	<g>
		<path fill="#EEB886" d="M89.83,256.333c-1.095,0-1.789-0.043-1.976-0.057l-1.493-0.105l0.857-12.438l1.493,0.099
			c0.114,0.008,0.545,0.03,1.232,0.03c5.421,0,23.875-1.383,33.716-19.176l0.726-1.312l10.918,6.035l-0.727,1.312
			C121.435,254.485,97.004,256.333,89.83,256.333z"/>
		<g>
			<path fill="#010101" d="M124.971,225.413l8.292,4.584c-12.77,23.092-36.552,24.836-43.434,24.836
				c-1.049,0-1.704-0.041-1.869-0.053l0.651-9.451c0.123,0.008,0.589,0.033,1.331,0.033
				C95.24,245.362,114.671,244.037,124.971,225.413 M123.797,221.335l-1.452,2.625c-9.443,17.075-27.189,18.401-32.403,18.401
				c-0.695,0-1.09-0.023-1.132-0.026l-2.986-0.198l-0.206,2.985l-0.652,9.45l-0.206,2.986l2.986,0.213
				c0.199,0.016,0.938,0.061,2.082,0.061c7.382,0,32.521-1.902,46.059-26.384l1.451-2.625l-2.625-1.452l-8.293-4.584
				L123.797,221.335L123.797,221.335z"/>
		</g>
	</g>
	<g>
		<path fill="#B77F53" d="M130.627,228.54c-12.997,21.242-35.615,22.891-42.298,22.891c-0.051,0-0.089,0-0.138,0l-0.231,3.35
			c0.165,0.013,0.82,0.054,1.869,0.054c6.882,0,30.664-1.744,43.434-24.836L130.627,228.54z"/>
	</g>
	<g>
		<path fill="#753F1A" d="M91.692,260.332c-0.829,0-1.5-0.672-1.5-1.5v-17.146c0-0.662,0.436-1.248,1.071-1.438
			c1.644-0.491,6.321-2.256,8.197-4.491c0.294-0.351,0.719-0.536,1.15-0.536c0.274,0,0.55,0.075,0.797,0.229
			c4.134,2.599,9.597,12.229,3.491,22.719c-0.163,0.279-0.413,0.5-0.711,0.625C100.662,260.289,92.6,260.332,91.692,260.332z"/>
		<path fill="#010101" d="M100.609,236.721c3.049,1.916,8.938,10.48,2.993,20.693c-3.347,1.418-11.91,1.418-11.91,1.418v-17.146
			C91.692,241.686,98.025,239.801,100.609,236.721 M100.61,233.721c-0.861,0-1.711,0.37-2.3,1.072
			c-1.637,1.95-6.056,3.596-7.475,4.018c-1.272,0.379-2.144,1.549-2.144,2.875v17.146c0,1.658,1.343,3,3,3
			c1.532,0,9.361-0.08,13.081-1.654c0.597-0.254,1.096-0.693,1.422-1.254c6.697-11.504,0.706-21.792-3.99-24.742
			C101.712,233.871,101.159,233.721,100.61,233.721L100.61,233.721z"/>
	</g>
	<path fill="#502B13" d="M105.786,251.917c-4.912,1.828-10.274,1.814-10.274,1.814l-3.819,3.859v1.242c0,0,8.563,0,11.91-1.418
		C104.708,255.514,105.404,253.67,105.786,251.917z"/>
	<g>
		<path fill="#EEB886" d="M183.106,272.416l0.737-1.307c4.426-7.838,5.631-14.541,3.582-19.923
			c-2.976-7.814-12.14-11.18-12.231-11.213l-1.392-0.498l0.471-1.401l3.72-10.884l1.419,0.486
			c0.609,0.208,14.979,5.262,20.163,18.883c3.489,9.172,2.005,19.582-4.412,30.941l-0.736,1.307L183.106,272.416z"/>
		<g>
			<path fill="#010101" d="M178.926,229.096c0.582,0.199,14.306,5.021,19.247,17.998c3.321,8.732,1.871,18.714-4.316,29.669
				l-8.707-4.916c4.655-8.244,5.894-15.375,3.678-21.195c-3.236-8.504-13.036-12.061-13.136-12.094L178.926,229.096
				 M177.058,225.286l-0.971,2.84l-3.234,9.463l-0.976,2.854l2.82,0.949c0.412,0.154,8.668,3.349,11.325,10.33
				c1.883,4.945,0.709,11.222-3.486,18.652l-1.476,2.611l2.613,1.477l8.707,4.916l2.61,1.475l1.477-2.611
				c6.646-11.768,8.163-22.605,4.508-32.212c-5.434-14.271-20.443-19.551-21.079-19.77L177.058,225.286L177.058,225.286z"/>
		</g>
	</g>
	<g>
		<path fill="#B77F53" d="M195.849,272.916c4.467-9.451,5.254-18.123,2.324-25.822c-3.229-8.477-10.201-13.473-14.813-15.975
			l-1.947,5.697c0.099,0.033,9.898,3.59,13.136,12.094c2.215,5.82,0.979,12.951-3.679,21.195L195.849,272.916z"/>
	</g>
	<g>
		<path fill="#9E9E9E" d="M122.911,292.162c-0.829,0-1.5-0.672-1.5-1.5v-27.904l-4.634-31.889c-0.076-0.521,0.127-1.044,0.536-1.378
			l7.458-6.092c3.153-4.164,7.933-6.547,13.14-6.547h29.176c5.142,0,10.046,2.453,13.159,6.571l7.429,6.065
			c0.406,0.335,0.61,0.856,0.535,1.379l-4.622,31.806v27.988c0,0.826-0.673,1.5-1.5,1.5H122.911L122.911,292.162z"/>
		<path fill="#010101" d="M167.086,218.352c4.955,0,9.336,2.414,12.066,6.117l7.57,6.184l-4.638,31.914v28.098
			c-10.572,0-45.354,0-59.176,0v-28.016l-4.649-31.996l7.601-6.207c2.731-3.69,7.104-6.094,12.05-6.094H167.086 M167.086,215.352
			h-29.176c-5.537,0-10.824,2.608-14.225,6.996l-7.323,5.981c-0.816,0.666-1.223,1.712-1.071,2.755l4.618,31.781v27.797
			c0,1.656,1.343,3,3,3h59.176c1.656,0,3-1.344,3-3v-27.879l4.605-31.699c0.151-1.043-0.255-2.089-1.071-2.755l-7.291-5.956
			C177.93,217.969,172.635,215.352,167.086,215.352L167.086,215.352z"/>
	</g>
	<ellipse opacity="0.6" fill="#7D7D7D" cx="155.663" cy="331.023" rx="83.452" ry="13.359"/>
	<path fill="#EEB886" stroke="#010101" stroke-width="3" stroke-linecap="round" stroke-miterlimit="10" d="M140.572,198.614
		c0,0,12.261,6.131,26.302,0"/>
	<g>
		<path fill="#454545" d="M159.788,334.828c-0.828,0-1.5-0.672-1.5-1.5v-22.125c0-3.191-2.597-5.789-5.787-5.789
			c-3.192,0-5.789,2.598-5.789,5.789v22.125c0,0.828-0.672,1.5-1.5,1.5h-17.301c-0.761,0-1.4-0.568-1.49-1.324l-5-42.666
			c-0.05-0.426,0.084-0.854,0.369-1.172c0.285-0.32,0.692-0.504,1.121-0.504h59.176c0.429,0,0.836,0.184,1.121,0.504
			c0.283,0.318,0.419,0.746,0.368,1.172l-5,42.666c-0.089,0.756-0.729,1.324-1.489,1.324H159.788z"/>
		<g>
			<path fill="#010101" d="M182.086,290.662l-5,42.666h-17.299v-22.125c0-4.025-3.264-7.289-7.289-7.289s-7.289,3.264-7.289,7.289
				v22.125h-17.299l-5-42.666H182.086 M182.086,287.662H122.91c-0.856,0-1.672,0.365-2.241,1.006s-0.838,1.492-0.738,2.344l5,42.666
				c0.177,1.512,1.458,2.65,2.979,2.65h17.299c1.658,0,3-1.342,3-3v-22.125c0-2.365,1.924-4.289,4.289-4.289
				c2.364,0,4.289,1.924,4.289,4.289v22.125c0,1.658,1.342,3,3,3h17.299c1.521,0,2.803-1.141,2.979-2.65l5-42.666
				c0.1-0.852-0.169-1.703-0.738-2.344C183.758,288.027,182.943,287.662,182.086,287.662L182.086,287.662z"/>
		</g>
	</g>
	<path fill="#282828" d="M175.429,297.336c0,6.303-4.079,13.223-13.437,14.66c5.285,3.574,11.108,5.363,16.89,6.012l3.204-27.346
		h-11.209C173.377,292.564,175.429,294.873,175.429,297.336z"/>
	<g>
		<polygon fill="#753F1A" points="125.659,314.1 127.911,333.328 145.209,333.328 145.209,314.1 		"/>
		<g>
			<path fill="#753F1A" d="M123.881,320.488c-3.293,0-5.972-2.68-5.972-5.973s2.679-5.973,5.972-5.973h24.145
				c3.293,0,5.973,2.68,5.973,5.973s-2.68,5.973-5.973,5.973H123.881z"/>
			<path fill="#010101" d="M148.026,310.043c2.471,0,4.473,2.002,4.473,4.473c0,2.473-2.002,4.475-4.473,4.475h-24.145
				c-2.47,0-4.472-2.002-4.472-4.475c0-2.471,2.002-4.473,4.472-4.473H148.026 M148.026,307.043h-24.145
				c-4.12,0-7.472,3.354-7.472,7.473c0,4.121,3.352,7.475,7.472,7.475h24.145c4.12,0,7.473-3.354,7.473-7.475
				C155.499,310.396,152.146,307.043,148.026,307.043L148.026,307.043z"/>
		</g>
		<polygon fill="#753F1A" points="179.34,314.1 177.087,333.328 159.788,333.328 159.788,314.1 		"/>
		<g>
			<path fill="#753F1A" d="M124.777,334.828c-0.829,0-1.5-0.672-1.5-1.5c0-6.014,3.979-10.906,8.874-10.906h8.836
				c4.895,0,8.874,4.895,8.874,10.906c0,0.828-0.672,1.5-1.5,1.5H124.777z"/>
			<path fill="#010101" d="M140.987,323.922c4.072,0,7.374,4.211,7.374,9.406h-23.584c0-5.195,3.302-9.406,7.374-9.406H140.987
				 M140.987,320.922h-8.836c-5.72,0-10.374,5.566-10.374,12.406c0,1.658,1.343,3,3,3h23.584c1.657,0,3-1.342,3-3
				C151.361,326.488,146.708,320.922,140.987,320.922L140.987,320.922z"/>
		</g>
		<g>
			<path fill="#753F1A" d="M156.594,334.828c-0.828,0-1.5-0.672-1.5-1.5c0-6.014,3.98-10.906,8.873-10.906h8.836
				c4.894,0,8.874,4.895,8.874,10.906c0,0.828-0.672,1.5-1.5,1.5H156.594z"/>
			<path fill="#010101" d="M172.803,323.922c4.072,0,7.374,4.211,7.374,9.406h-23.583c0-5.195,3.301-9.406,7.373-9.406H172.803
				 M172.803,320.922h-8.835c-5.722,0-10.374,5.566-10.374,12.406c0,1.658,1.343,3,3,3h23.583c1.657,0,3-1.342,3-3
				C183.177,326.488,178.524,320.922,172.803,320.922L172.803,320.922z"/>
		</g>
		<path fill="#502B13" d="M148.026,310.043h-10.738c2.088,1.082,4.11,2.537,4.344,4.203c0.246,1.748-0.688,3.402-2.65,4.742h9.046
			c2.472,0,4.474-2.002,4.474-4.473S150.497,310.043,148.026,310.043z"/>
		<g>
			<path fill="#753F1A" d="M156.972,320.488c-3.293,0-5.974-2.68-5.974-5.973s2.681-5.973,5.974-5.973h24.145
				c3.293,0,5.973,2.68,5.973,5.973s-2.68,5.973-5.973,5.973H156.972z"/>
			<path fill="#010101" d="M181.117,310.043c2.471,0,4.473,2.002,4.473,4.473c0,2.473-2.002,4.475-4.473,4.475h-24.145
				c-2.472,0-4.474-2.002-4.474-4.475c0-2.471,2.002-4.473,4.474-4.473H181.117 M181.117,307.043h-24.145
				c-4.12,0-7.474,3.354-7.474,7.473c0,4.121,3.354,7.475,7.474,7.475h24.145c4.12,0,7.473-3.354,7.473-7.475
				C188.589,310.396,185.237,307.043,181.117,307.043L181.117,307.043z"/>
		</g>
		<path fill="#502B13" d="M181.116,310.043h-10.738c2.088,1.082,4.11,2.537,4.345,4.203c0.245,1.748-0.688,3.402-2.651,4.742h9.046
			c2.471,0,4.474-2.002,4.474-4.473S183.585,310.043,181.116,310.043z"/>
		<path fill="#502B13" d="M148.361,333.328c0-5.195-3.302-9.406-7.374-9.406h-2.122c2.75,0.613,4.13,2.137,4.642,3.699
			c0.574,1.75,0.478,3.848-0.623,5.707H148.361z"/>
		<path fill="#502B13" d="M180.177,333.328c0-5.195-3.302-9.406-7.374-9.406h-2.122c2.751,0.613,4.13,2.137,4.642,3.699
			c0.573,1.75,0.478,3.848-0.623,5.707H180.177z"/>
	</g>
	<path fill="#502B13" d="M162.833,290.662h19.254v-9.887h-19.197c2.348,1.34,3.966,2.762,3.994,4.15
		C166.918,286.686,165.415,288.719,162.833,290.662z"/>
	<path fill="#737373" d="M186.724,230.653l-7.57-6.185c-2.73-3.702-7.112-6.116-12.067-6.116h-11.891l-0.634,10.389
		c0,0,28.986-7.91,17.897,51.302c3.474,0.24,6.674,0.006,9.627-0.607v-16.869L186.724,230.653z"/>
	<g>
		<path fill="#753F1A" d="M127.958,275.652c-0.828,0-1.5-0.672-1.5-1.5v-56.966c0-0.828,0.672-1.5,1.5-1.5h11.648
			c0.828,0,1.5,0.672,1.5,1.5v56.966c0,0.828-0.672,1.5-1.5,1.5H127.958z"/>
		<path fill="#010101" d="M139.606,217.186v56.966h-11.648v-56.966H139.606 M139.606,214.186h-11.648c-1.658,0-3,1.344-3,3v56.966
			c0,1.658,1.342,3,3,3h11.648c1.657,0,3-1.342,3-3v-56.966C142.606,215.528,141.263,214.186,139.606,214.186L139.606,214.186z"/>
	</g>
	<g>
		<rect x="137.288" y="217.186" fill="#4E2A12" width="2.318" height="56.966"/>
	</g>
	<g>
		<path fill="#EEB886" d="M152.499,232.153c-43.79,0-79.416-48.416-79.416-107.927c0-40.283,35.626-73.056,79.416-73.056
			c43.79,0,79.415,32.772,79.415,73.056C231.914,183.737,196.289,232.153,152.499,232.153z"/>
		<path fill="#010101" d="M152.499,52.67c43.032,0,77.915,32.037,77.915,71.556c0,58.778-34.883,106.426-77.915,106.426
			c-43.032,0-77.916-47.647-77.916-106.426C74.583,84.708,109.466,52.67,152.499,52.67 M152.499,49.67
			c-44.617,0-80.916,33.445-80.916,74.556c0,29.061,8.311,56.417,23.4,77.027c15.296,20.894,35.723,32.399,57.516,32.399
			c21.795,0,42.221-11.506,57.517-32.399c15.089-20.61,23.398-47.967,23.398-77.027C233.414,83.116,197.116,49.67,152.499,49.67
			L152.499,49.67z"/>
	</g>
	<path fill="#B77F53" d="M206.789,116.042c0,0,14.244,98.218-58.751,114.433c1.477,0.113,2.963,0.178,4.461,0.178
		c43.032,0,77.915-47.647,77.915-106.426c0-1.733-0.09-3.446-0.223-5.149l-10.055-12.823L206.789,116.042z"/>
	<circle fill="#010101" cx="116.526" cy="144.986" r="7.155"/>
	<circle fill="#010101" cx="190.079" cy="144.986" r="7.155"/>
	<g>
		<path fill="#753F1A" d="M122.911,282.162c-0.829,0-1.5-0.672-1.5-1.5v-9.887c0-0.828,0.671-1.5,1.5-1.5h59.176
			c0.827,0,1.5,0.672,1.5,1.5v9.887c0,0.828-0.673,1.5-1.5,1.5H122.911z"/>
		<g>
			<path fill="#010101" d="M182.086,270.775v9.887H122.91v-9.887H182.086 M182.086,267.775H122.91c-1.657,0-3,1.344-3,3v9.887
				c0,1.656,1.343,3,3,3h59.176c1.656,0,3-1.344,3-3v-9.887C185.086,269.119,183.744,267.775,182.086,267.775L182.086,267.775z"/>
		</g>
	</g>
	<g>
		<path fill="#753F1A" d="M149.821,279.031c-2.689,0-4.877-2.188-4.877-4.877s2.188-4.879,4.877-4.879h7.465
			c2.688,0,4.877,2.188,4.877,4.879c0,2.689-2.188,4.877-4.877,4.877H149.821z"/>
		<g>
			<path fill="#010101" d="M157.286,270.775c1.864,0,3.377,1.512,3.377,3.379c0,1.865-1.513,3.377-3.377,3.377h-7.465
				c-1.865,0-3.377-1.512-3.377-3.377c0-1.867,1.512-3.379,3.377-3.379H157.286 M157.286,267.775h-7.465
				c-3.517,0-6.377,2.861-6.377,6.379s2.86,6.377,6.377,6.377h7.465c3.517,0,6.377-2.859,6.377-6.377
				S160.801,267.775,157.286,267.775L157.286,267.775z"/>
		</g>
	</g>
	<path fill="#010101" d="M149.225,274.602c0,0.863-0.701,1.564-1.566,1.564h-5.306c-0.864,0-1.565-0.701-1.565-1.564l0,0
		c0-0.865,0.701-1.564,1.565-1.564h5.306C148.524,273.035,149.225,273.736,149.225,274.602L149.225,274.602z"/>
	<g>
		<path fill="#9E9E9E" d="M122.911,302.314c-0.829,0-1.5-0.672-1.5-1.5v-20.039c0-0.828,0.671-1.5,1.5-1.5h59.267
			c0.828,0,1.5,0.672,1.5,1.5v20.039c0,0.828-0.672,1.5-1.5,1.5H122.911z"/>
		<g>
			<path fill="#010101" d="M182.177,280.775v20.039H122.91v-20.039H182.177 M182.177,277.775H122.91c-1.657,0-3,1.344-3,3v20.039
				c0,1.656,1.343,3,3,3h59.267c1.657,0,3-1.344,3-3v-20.039C185.177,279.119,183.834,277.775,182.177,277.775L182.177,277.775z"/>
		</g>
	</g>
	<path fill="#737373" d="M174.262,300.814h7.915v-20.039h-31.021C151.156,280.775,169.314,278.141,174.262,300.814z"/>
	<g>
		<path fill="#753F1A" d="M182.177,290.834c-10.892,0-19.751-8.859-19.751-19.752c0-10.891,8.859-19.75,19.751-19.75
			s19.752,8.859,19.752,19.75C201.929,281.975,193.069,290.834,182.177,290.834z"/>
		<g>
			<path fill="#010101" d="M182.177,252.833c10.08,0,18.252,8.169,18.252,18.25s-8.172,18.252-18.252,18.252
				c-10.079,0-18.251-8.172-18.251-18.252S172.098,252.833,182.177,252.833 M182.177,249.833c-11.718,0-21.251,9.533-21.251,21.25
				c0,11.719,9.533,21.252,21.251,21.252c11.719,0,21.252-9.533,21.252-21.252C203.429,259.365,193.896,249.833,182.177,249.833
				L182.177,249.833z"/>
		</g>
	</g>
	<path fill="#502B13" d="M200.429,271.082c0-0.033-0.004-0.066-0.004-0.102c-5.883,8.953-16.234,9.57-22.869,5.59
		c-7.067-4.238-8.847-12.207-7.813-18.822c-3.572,3.332-5.816,8.064-5.816,13.334c0,10.08,8.172,18.252,18.251,18.252
		C192.257,289.334,200.429,281.162,200.429,271.082z"/>
	<path fill="#B77F53" d="M77.335,154.555c0,0,3.379-31.381,7.479-33.074c7.89,11.782,17.296,14.843,17.296,14.843
		c-3.506-4.908-3.593-34.592-3.593-34.592c11.37,17.18,22.758,23.261,22.758,23.261c-3.506-5.029-3.015-25.598-3.015-25.598
		c6.755,11.453,23.115,24.309,43.449,27.58c-7.946-12.855-9.219-16.828-9.219-16.828c12.49,13.556,26.354,20.127,47.938,22.334
		c-6.465-6.908-7.633-8.778-7.633-8.778c13.088,11.453,37.616,24.308,37.616,24.308c-11.905-49.55-50.472-65.443-50.472-65.443
		l-59.601-5.336L94.862,90.047l-17.529,19.399l-7.946,17.529L77.335,154.555z"/>
	<g>
		<path fill="#EAB632" d="M77.164,158.115c-10.093-15.687-15.428-34.013-15.428-52.999c0-52.382,40.716-94.998,90.763-94.998
			c50.048,0,90.764,42.616,90.764,94.998c0,18.985-5.335,37.312-15.428,52.998l-4.771,7.416l2.051-8.576
			c0.744-3.111,1.398-6.395,1.948-9.773c-9.139-7.349-23.266-19.137-32.001-28.507c1.624,3.948,3.871,8.745,6.627,12.99l2.205,3.396
			l-3.886-1.14c-12.938-3.797-31.565-13.603-43.602-25.242c1.205,4.392,3.144,10.618,5.604,15.656l2.021,4.138l-4.069-2.154
			c-14.373-7.604-24.885-15.063-33.519-23.838c0.177,4.159,0.463,10.704,0.713,15.422l0.152,2.879l-2.445-1.528
			c-8.832-5.518-14.854-12.996-18.122-17.812c0.593,6.845,3.003,15.563,7.769,22.721l1.99,2.988l-3.524-0.685
			c-0.592-0.115-13.354-2.679-23.198-11.166c0.565,4.844,2.114,13.536,6.322,21.855l1.509,2.984l-3.232-0.857
			c-6.538-1.733-12.658-5.445-18.238-11.054c0.268,9.801,1.525,19.446,3.745,28.727l2.052,8.578L77.164,158.115z"/>
		<path fill="#010101" d="M152.499,11.618c49.299,0,89.264,41.86,89.264,93.498c0,19.326-5.601,37.282-15.189,52.188
			c0.838-3.504,1.535-7.093,2.107-10.746c-10.963-8.79-31.465-25.854-38.021-35.576c0,0,3.603,12,9.771,21.5
			c-15.332-4.5-36.168-16.5-46.876-29c0,0,2.708,12.5,7.108,21.512c-15.099-7.988-26.4-16.012-35.886-26.459
			c0,0,0.484,11.947,0.882,19.447c-13.604-8.5-20.488-22-20.488-22c-0.591,8,2.091,20,8.091,29.012c0,0-15.5-3.012-25.301-13.512
			c0,0,0.301,13.5,6.801,26.351c-8.489-2.251-15.243-7.796-20.177-13.483c0.009,11.505,1.358,22.579,3.841,32.956
			c-9.591-14.906-15.189-32.862-15.189-52.188C63.236,53.479,103.2,11.618,152.499,11.618 M152.499,8.618
			c-50.874,0-92.263,43.289-92.263,96.498c0,19.275,5.417,37.882,15.667,53.811l9.545,14.833l-4.104-17.155
			c-1.92-8.027-3.112-16.333-3.559-24.776c5.028,4.394,10.458,7.379,16.208,8.904l6.465,1.714l-3.019-5.968
			c-3.197-6.32-4.821-12.869-5.645-17.688c9.567,6.876,20.345,9.041,20.895,9.147l7.049,1.37l-3.979-5.977
			c-3.353-5.036-5.502-10.862-6.646-16.208c3.547,4.351,8.526,9.385,14.956,13.402l4.891,3.056l-0.305-5.758
			c-0.183-3.444-0.385-7.864-0.549-11.616c8.216,7.751,18.117,14.54,31.154,21.438l8.141,4.307l-4.042-8.275
			c-1.569-3.214-2.925-6.93-4.007-10.326c12.077,10.207,28.477,18.559,40.233,22.009l7.771,2.281l-4.41-6.793
			c-1.062-1.637-2.049-3.357-2.95-5.078c8.15,7.813,18.201,16.192,25.442,22.031c-0.514,3.039-1.111,5.994-1.784,8.805
			l-4.102,17.152l9.542-14.832c10.25-15.93,15.667-34.537,15.667-53.811C244.761,51.907,203.373,8.618,152.499,8.618L152.499,8.618z
			"/>
	</g>
	<path fill="#C0912D" d="M160.668,12.011c18.486,8.563,41.62,23.823,48.426,48.303c8.472,30.476,5.212,53.495,0.257,69.999
		c6.924,6.161,14.178,12.115,19.328,16.244c-0.572,3.653-1.271,7.242-2.107,10.746c9.59-14.905,15.189-32.861,15.189-52.188
		C241.761,56.364,206.136,16.333,160.668,12.011z"/>
	<g>
		<path fill="#A5792B" d="M103.511,31.23c0,0,0.777-0.139,2.235-0.4c1.461-0.237,3.607-0.596,6.356-0.907
			c5.494-0.614,13.391-1.36,22.908-1.254c4.756,0.048,9.916,0.281,15.349,0.879c5.431,0.59,11.147,1.489,16.955,2.95
			c5.801,1.457,11.729,3.384,17.445,6.097c5.715,2.697,11.241,6.127,16.134,10.363c1.262,1.013,2.37,2.199,3.521,3.332l0.858,0.856
			c0.326,0.348,0.54,0.605,0.814,0.912l1.562,1.77c1.053,1.151,2.021,2.49,3.028,3.722c0.994,1.258,1.867,2.573,2.8,3.85
			c3.604,5.19,6.47,10.733,8.828,16.238c2.358,5.512,4.106,11.044,5.43,16.354c1.333,5.311,2.197,10.417,2.765,15.146
			c1.153,9.466,1.013,17.42,0.755,22.943c-0.133,2.766-0.371,4.929-0.537,6.401c-0.174,1.471-0.304,2.25-0.304,2.25
			s0.073-0.787,0.141-2.264c0.073-1.477,0.113-3.646,0.116-6.401c0-5.509-0.407-13.393-1.876-22.691
			c-0.747-4.645-1.792-9.635-3.226-14.814c-1.441-5.176-3.32-10.528-5.686-15.869c-2.369-5.338-5.303-10.631-8.79-15.649
			c-0.908-1.225-1.771-2.508-2.724-3.698l-1.433-1.785c-0.47-0.598-0.954-1.193-1.494-1.775l-1.571-1.76
			c-0.252-0.278-0.548-0.623-0.764-0.846l-0.821-0.808c-1.101-1.071-2.157-2.189-3.363-3.152
			c-4.633-4.056-9.905-7.376-15.405-10.009c-5.507-2.628-11.209-4.66-16.861-6.159c-11.317-3.016-22.298-4.185-31.698-4.667
			c-9.414-0.441-17.301-0.239-22.804,0.119c-2.751,0.184-4.915,0.343-6.387,0.489C104.296,31.147,103.511,31.23,103.511,31.23z"/>
	</g>
	<g>
		<path fill="#C5952C" d="M98.511,34.73c0,0-0.606,1.386-1.536,3.849c-0.461,1.233-1.003,2.735-1.591,4.466
			c-0.597,1.728-1.189,3.703-1.838,5.849c-0.604,2.161-1.237,4.504-1.804,7.003c-0.596,2.492-1.051,5.153-1.522,7.896
			c-0.398,2.755-0.74,5.609-0.901,8.516c-0.215,2.904-0.192,5.86-0.053,8.802c0.133,1.464,0.146,2.944,0.375,4.391
			c0.093,0.727,0.185,1.452,0.278,2.174c0.105,0.72,0.265,1.429,0.394,2.14c0.526,2.844,1.277,5.591,2.168,8.197
			c0.425,1.311,1.019,2.531,1.477,3.778c0.524,1.218,1.134,2.366,1.675,3.513c0.585,1.123,1.258,2.157,1.841,3.201
			c0.581,1.048,1.303,1.954,1.911,2.886c0.322,0.453,0.606,0.921,0.941,1.335c0.334,0.415,0.662,0.82,0.98,1.215
			c0.643,0.786,1.21,1.576,1.824,2.246c1.26,1.305,2.284,2.539,3.238,3.438c1.913,1.796,3.001,2.857,3.001,2.857
			s-1.237-0.854-3.394-2.407c-1.071-0.786-2.258-1.878-3.669-3.089c-0.695-0.617-1.353-1.355-2.093-2.093
			c-0.363-0.377-0.735-0.763-1.115-1.159c-0.378-0.398-0.709-0.854-1.079-1.293c-0.703-0.906-1.528-1.79-2.217-2.823
			c-0.689-1.032-1.438-2.082-2.121-3.214c-0.635-1.159-1.341-2.327-1.965-3.57c-0.289-0.633-0.582-1.273-0.877-1.919
			c-0.284-0.651-0.61-1.294-0.836-1.982c-0.248-0.68-0.497-1.366-0.749-2.057l-0.375-1.042l-0.307-1.07
			c-0.205-0.716-0.411-1.438-0.618-2.162c-0.209-0.725-0.319-1.475-0.483-2.217c-0.145-0.745-0.32-1.49-0.44-2.244
			c-0.106-0.757-0.212-1.516-0.319-2.276c-0.254-1.518-0.295-3.06-0.441-4.594c-0.112-3.076-0.097-6.154,0.16-9.163
			c0.182-3.017,0.703-5.943,1.192-8.764c0.556-2.81,1.208-5.5,1.959-8.007c0.705-2.521,1.544-4.849,2.337-6.984
			c1.622-4.26,3.275-7.677,4.515-10.017C97.684,35.998,98.511,34.73,98.511,34.73z"/>
	</g>
	<path fill="#C0912D" d="M78.425,157.303c-1.524-6.371-2.616-13.007-3.238-19.842c-4.589-4.713-7.999-10.228-10.536-15.753
		C66.874,134.701,71.646,146.767,78.425,157.303z"/>
	<g>
		<path fill="#C0912D" d="M200.429,132.48c-2.209-3.402-4.086-7.123-5.59-10.5c-20.528-3.7-41.286-18.5-41.286-18.5
			C164.261,115.98,185.097,127.98,200.429,132.48z"/>
	</g>
	<g>
		<path fill="#C0912D" d="M156.004,112.704c-10.836,2.347-31.229-14.17-31.229-14.17c9.484,10.447,20.787,18.471,35.887,26.459
			C158.769,121.117,157.191,116.599,156.004,112.704z"/>
	</g>
	<path fill="#C0912D" d="M125.24,109.312c-8.967,0.426-20.069-13.331-20.069-13.331l0.344,0.635
		c1.542,2.762,8.291,13.96,20.144,21.365C125.521,115.396,125.374,112.283,125.24,109.312z"/>
	<path fill="#C0912D" d="M153.553,103.48c0,0-31.042-26.5-46.292-58c18.75,24.75,55.407,66.75,87.578,76.5
		c-9.123,0.044-20.828-4-20.828-4L153.553,103.48z"/>
	<g>
		<path fill="#A5792B" d="M100.761,32.98c0,0,1.331,1.654,3.659,4.55c1.171,1.438,2.593,3.187,4.225,5.192
			c1.645,1.992,3.5,4.239,5.524,6.69c2.067,2.416,4.249,5.077,6.625,7.833c2.367,2.764,4.869,5.672,7.496,8.645
			c1.313,1.486,2.625,3.02,3.996,4.53c1.371,1.511,2.76,3.041,4.158,4.583c2.748,3.129,5.717,6.142,8.598,9.236
			c2.895,3.081,5.896,6.054,8.793,9.04c3.014,2.864,5.901,5.767,8.781,8.485c2.959,2.627,5.736,5.267,8.465,7.661
			c2.789,2.319,5.401,4.546,7.817,6.603c2.515,1.93,4.82,3.7,6.864,5.268c0.51,0.395,1.004,0.777,1.48,1.146
			c0.482,0.36,0.977,0.667,1.433,0.987c0.922,0.629,1.769,1.207,2.532,1.729c3.058,2.114,4.804,3.323,4.804,3.323
			s-1.861-1.024-5.118-2.816c-0.813-0.455-1.714-0.959-2.694-1.507c-0.485-0.279-1.01-0.547-1.519-0.876
			c-0.505-0.334-1.028-0.68-1.568-1.038c-2.164-1.43-4.606-3.047-7.257-4.843c-2.551-1.92-5.312-4.012-8.211-6.255
			c-2.851-2.3-5.771-4.827-8.808-7.427c-2.957-2.684-5.992-5.482-9.032-8.372c-2.942-2.984-6-5.954-8.935-9.038
			c-2.875-3.14-5.841-6.199-8.578-9.369c-2.793-3.123-5.469-6.259-8.006-9.336c-2.585-3.036-4.957-6.077-7.22-8.945
			c-2.287-2.85-4.319-5.647-6.245-8.186c-3.782-5.135-6.822-9.491-8.879-12.59c-1.045-1.537-1.822-2.777-2.362-3.613
			C101.046,33.43,100.761,32.98,100.761,32.98z"/>
	</g>
	<path fill="#C0912D" d="M103.511,32.98c0,0,83.319,20.986,109.067,95.5c2.129,6.163,9.998-17.027,11.812-10.244
		C224.39,100.736,202.421,32.98,103.511,32.98z"/>
	<path fill="#C0912D" d="M108.026,114.284c-9.327,6.156-20.065-2.803-20.065-2.803c9.801,10.5,25.301,13.512,25.301,13.512
		C111.074,121.708,109.333,118.024,108.026,114.284z"/>
	<path fill="#C0912D" d="M90.806,127.788c-8.941,2.453-16.222-3.439-16.222-3.439c4.934,5.688,11.688,11.232,20.177,13.483
		C93.046,134.441,91.766,131.008,90.806,127.788z"/>
	<g>
		<path fill="#F0CA89" d="M100.761,32.98c0,0,2.123,6.368,5.945,15.612c0.949,2.313,2.042,4.791,3.188,7.412
			c1.17,2.611,2.452,5.34,3.807,8.146c1.337,2.816,2.857,5.655,4.373,8.55c0.761,1.446,1.577,2.876,2.37,4.327
			c0.839,1.423,1.65,2.872,2.518,4.284c1.701,2.846,3.444,5.669,5.291,8.358c0.906,1.357,1.83,2.684,2.759,3.985
			c0.905,1.319,1.862,2.575,2.801,3.812c0.914,1.257,1.903,2.419,2.825,3.598c0.912,1.188,1.878,2.285,2.802,3.37
			c0.907,1.1,1.856,2.109,2.763,3.098c0.892,1.003,1.771,1.956,2.658,2.829c1.725,1.799,3.396,3.354,4.872,4.75
			c1.503,1.36,2.854,2.506,3.949,3.478c2.278,1.839,3.581,2.89,3.581,2.89s-1.436-0.857-3.938-2.411
			c-1.199-0.847-2.695-1.833-4.328-3.075c-0.809-0.635-1.666-1.31-2.572-2.021c-0.918-0.702-1.79-1.542-2.754-2.364
			c-0.965-0.821-1.928-1.721-2.905-2.672c-0.99-0.94-1.998-1.93-2.983-2.995c-2.016-2.088-4.062-4.371-6.046-6.84
			c-0.995-1.231-2.012-2.481-2.977-3.794c-0.49-0.65-0.984-1.305-1.48-1.963c-0.471-0.676-0.942-1.356-1.417-2.039
			c-1.908-2.722-3.717-5.574-5.473-8.455c-0.868-1.447-1.677-2.927-2.515-4.383c-0.791-1.481-1.604-2.943-2.361-4.419
			c-0.757-1.476-1.509-2.94-2.188-4.417c-0.704-1.465-1.374-2.924-2.013-4.367c-1.307-2.873-2.433-5.71-3.479-8.404
			c-1.039-2.698-1.953-5.273-2.734-7.67c-0.804-2.389-1.461-4.604-2.019-6.573c-0.567-1.966-0.999-3.698-1.347-5.125
			C101.046,34.635,100.761,32.98,100.761,32.98z"/>
	</g>
	<g>
		<path fill="#F0CA89" d="M94.761,37.48c0,0-0.252,0.323-0.693,0.952c-0.447,0.623-1.068,1.563-1.849,2.76
			c-0.785,1.194-1.675,2.686-2.664,4.41c-0.954,1.745-2.024,3.714-3.073,5.919c-1.064,2.197-2.125,4.62-3.133,7.223
			c-1.045,2.589-1.915,5.403-2.801,8.308c-0.79,2.933-1.545,5.982-2.049,9.127c-0.313,1.563-0.466,3.162-0.681,4.757
			c-0.171,1.6-0.28,3.214-0.378,4.826c-0.122,3.227-0.148,6.466,0.144,9.634c0.065,0.793,0.13,1.583,0.195,2.368
			c0.104,0.781,0.208,1.559,0.312,2.332c0.111,0.771,0.192,1.544,0.326,2.302c0.149,0.755,0.296,1.505,0.443,2.25
			c0.154,0.742,0.273,1.487,0.454,2.21c0.186,0.722,0.37,1.437,0.553,2.144c0.18,0.708,0.358,1.41,0.535,2.102
			c0.219,0.681,0.435,1.353,0.647,2.016c0.792,2.676,1.82,5.109,2.686,7.391c0.504,1.111,0.987,2.177,1.447,3.19
			c0.227,0.509,0.448,1.005,0.662,1.487c0.243,0.469,0.479,0.923,0.708,1.364c0.936,1.752,1.664,3.337,2.438,4.54
			c1.458,2.46,2.273,3.888,2.273,3.888s-0.959-1.325-2.604-3.682c-0.86-1.156-1.697-2.688-2.761-4.389
			c-0.261-0.429-0.53-0.871-0.807-1.326c-0.25-0.47-0.506-0.955-0.77-1.452c-0.519-1-1.063-2.052-1.632-3.149
			c-0.996-2.261-2.162-4.686-3.054-7.386c-0.241-0.668-0.485-1.346-0.733-2.032c-0.205-0.7-0.413-1.408-0.623-2.125
			c-0.207-0.718-0.417-1.443-0.627-2.176c-0.2-0.735-0.339-1.494-0.514-2.25c-0.166-0.758-0.334-1.523-0.503-2.294
			c-0.154-0.773-0.254-1.563-0.386-2.352c-0.123-0.791-0.247-1.586-0.371-2.385c-0.072-0.806-0.145-1.615-0.218-2.428
			c-0.321-3.251-0.323-6.576-0.216-9.89c0.112-1.654,0.236-3.31,0.423-4.949c0.231-1.635,0.402-3.272,0.733-4.871
			c0.526-3.223,1.408-6.315,2.265-9.293c0.95-2.952,1.956-5.777,3.108-8.371c0.534-1.314,1.154-2.549,1.71-3.761
			c0.618-1.182,1.17-2.346,1.783-3.42c1.156-2.185,2.376-4.096,3.458-5.782c1.114-1.667,2.108-3.102,2.979-4.247
			c0.854-1.155,1.584-2.018,2.081-2.604C94.48,37.779,94.761,37.48,94.761,37.48z"/>
	</g>
	<g>
		<path fill="#F0CA89" d="M105.581,33.558c0,0,0.664,0.031,1.905,0.14c1.242,0.105,3.064,0.274,5.371,0.593
			c2.303,0.334,5.104,0.744,8.291,1.361c1.6,0.28,3.286,0.657,5.072,1.022c1.778,0.397,3.642,0.847,5.579,1.346
			c3.869,1.01,8.046,2.199,12.384,3.704c2.183,0.716,4.379,1.578,6.646,2.404c1.117,0.456,2.246,0.917,3.387,1.381
			c1.145,0.458,2.287,0.949,3.424,1.48c1.143,0.519,2.294,1.042,3.454,1.568c1.143,0.567,2.292,1.138,3.448,1.713
			c2.336,1.111,4.597,2.436,6.901,3.719c1.16,0.629,2.261,1.374,3.397,2.059c1.123,0.713,2.283,1.372,3.382,2.135
			c2.188,1.535,4.466,2.964,6.565,4.643l3.189,2.46l3.054,2.616c2.071,1.698,3.948,3.599,5.857,5.43
			c0.974,0.897,1.862,1.872,2.744,2.844c0.881,0.972,1.757,1.939,2.628,2.9c1.678,1.977,3.232,4.018,4.812,5.979
			c1.425,2.079,2.877,4.089,4.201,6.117c1.225,2.091,2.422,4.136,3.588,6.127c1.021,2.066,2.016,4.077,2.977,6.021
			c0.89,1.976,1.609,3.946,2.375,5.8c0.801,1.842,1.328,3.697,1.88,5.438c0.27,0.873,0.532,1.723,0.787,2.549
			c0.26,0.824,0.514,1.624,0.673,2.424c0.366,1.584,0.708,3.067,1.023,4.438c0.309,1.371,0.643,2.617,0.783,3.778
			c0.37,2.301,0.61,4.115,0.796,5.346c0.179,1.231,0.273,1.888,0.273,1.888s-0.151-0.647-0.436-1.861
			c-0.275-1.214-0.714-2.987-1.206-5.25c-0.212-1.14-0.624-2.359-1.016-3.699c-0.398-1.336-0.83-2.781-1.292-4.324
			c-0.207-0.778-0.509-1.553-0.817-2.351c-0.304-0.799-0.615-1.621-0.937-2.464c-0.651-1.681-1.23-3.487-2.109-5.261
			c-0.837-1.79-1.63-3.688-2.591-5.583c-1.007-1.871-2.048-3.805-3.119-5.792c-1.203-1.908-2.438-3.867-3.702-5.871
			c-1.384-1.918-2.799-3.878-4.235-5.872c-1.582-1.882-3.135-3.84-4.809-5.734c-0.867-0.919-1.74-1.845-2.617-2.774
			c-0.865-0.94-1.735-1.885-2.692-2.753c-1.874-1.773-3.712-3.614-5.747-5.257l-2.995-2.533l-3.129-2.384
			c-2.038-1.653-4.259-3.064-6.388-4.581c-1.068-0.753-2.202-1.406-3.297-2.111c-1.11-0.678-2.182-1.415-3.314-2.04
			c-2.26-1.26-4.451-2.601-6.72-3.742c-1.125-0.587-2.244-1.17-3.354-1.75c-1.131-0.541-2.253-1.077-3.365-1.609
			c-2.211-1.104-4.479-1.979-6.639-2.977c-2.207-0.886-4.347-1.809-6.477-2.585c-2.122-0.798-4.195-1.554-6.221-2.23
			c-2.012-0.72-3.985-1.321-5.875-1.923c-3.795-1.145-7.293-2.146-10.423-2.933c-3.124-0.813-5.878-1.396-8.148-1.874
			c-2.276-0.441-4.065-0.808-5.294-1.005C106.239,33.645,105.581,33.558,105.581,33.558z"/>
	</g>
	<g>
		<path fill="#753F1A" d="M134.263,258.564c-5.882,0-10.667-4.785-10.667-10.666c0-5.883,4.785-10.668,10.667-10.668
			c5.881,0,10.666,4.785,10.666,10.668C144.929,253.78,140.144,258.564,134.263,258.564z"/>
		<path fill="#010101" d="M134.263,238.731c5.063,0,9.166,4.104,9.166,9.168c0,5.062-4.104,9.166-9.166,9.166
			s-9.167-4.104-9.167-9.166C125.096,242.836,129.202,238.731,134.263,238.731 M134.263,235.731
			c-6.709,0-12.167,5.459-12.167,12.168c0,6.707,5.458,12.166,12.167,12.166c6.708,0,12.166-5.458,12.166-12.166
			C146.429,241.19,140.971,235.731,134.263,235.731L134.263,235.731z"/>
	</g>
	<g>
		<path fill="#4E2A12" d="M134.263,238.731c-0.371,0-0.734,0.028-1.093,0.071c4.545,0.541,8.072,4.402,8.072,9.097
			c0,4.69-3.527,8.555-8.072,9.096c0.357,0.042,0.722,0.07,1.093,0.07c5.063,0,9.166-4.104,9.166-9.166
			C143.429,242.836,139.327,238.731,134.263,238.731z"/>
	</g>
	<path fill="#737373" d="M122.911,284.41c2.634-2.963,9.783-3.543,13.554-3.635h-13.554V284.41L122.911,284.41z"/>
	<g>
		<g>
			<path fill="#E0E1E0" d="M12.998,163.581c-7.163-12.91-7.075-27.769,0.188-31.799c1.27-0.705,2.738-1.062,4.363-1.062
				c7.464,0,17.019,7.457,22.719,17.731l35.996,64.875l-27.271,15.131L12.998,163.581z"/>
			<path fill="#010101" d="M17.548,132.218c6.555,0,15.746,6.755,21.407,16.958c6.818,12.289,35.269,63.562,35.269,63.562
				l-12.323,6.841l-12.325,6.836c0,0-28.448-51.276-35.267-63.563c-6.818-12.29-6.682-26.271-0.396-29.761
				C14.98,132.5,16.209,132.218,17.548,132.218 M17.548,129.218c-1.882,0-3.595,0.42-5.09,1.25c-4.019,2.23-6.301,7.413-6.261,14.22
				c0.038,6.339,1.987,13.307,5.489,19.619c6.818,12.286,35.266,63.563,35.266,63.563l1.456,2.623l2.623-1.455l12.325-6.836
				l12.324-6.841l2.623-1.455l-1.456-2.622l-35.268-63.563C35.631,137,25.524,129.218,17.548,129.218L17.548,129.218z"/>
		</g>
		<path fill="#FFFFFF" d="M14.309,162.852c6.818,12.287,35.267,63.564,35.267,63.564l12.325-6.836l-47.987-86.488
			C7.627,136.581,7.491,150.563,14.309,162.852z"/>
	</g>
	<g>
		<g>
			<path fill="#916527" d="M89.555,279.938c-0.495,0-0.977-0.244-1.263-0.688l-31.923-49.644c-0.224-0.35-0.294-0.775-0.193-1.179
				c0.101-0.401,0.364-0.743,0.727-0.944l14.464-8.025c0.225-0.125,0.476-0.188,0.728-0.188c0.154,0,0.31,0.022,0.459,0.071
				c0.395,0.127,0.719,0.412,0.896,0.786l25.229,53.359c0.338,0.715,0.063,1.568-0.628,1.953l-7.77,4.311
				C90.052,279.877,89.802,279.938,89.555,279.938z"/>
			<path fill="#010101" d="M72.095,220.768l25.229,53.359l-7.77,4.311l-31.923-49.644L72.095,220.768 M72.095,217.768
				c-0.504,0-1.006,0.127-1.456,0.377l-14.464,8.025c-0.725,0.402-1.251,1.087-1.454,1.893c-0.203,0.804-0.063,1.655,0.386,2.354
				l31.923,49.644c0.571,0.889,1.536,1.377,2.526,1.377c0.493,0,0.993-0.121,1.453-0.377l7.77-4.311
				c1.383-0.768,1.933-2.477,1.256-3.904l-25.229-53.359c-0.354-0.75-1.003-1.319-1.793-1.573
				C72.714,217.815,72.404,217.768,72.095,217.768L72.095,217.768z"/>
		</g>
		<polygon fill="#482F14" points="95.178,275.316 97.324,274.127 74.84,226.764 70.728,229.87 		"/>
		<g>
			<path fill="#916527" d="M93.444,283.268c-2.54,0-4.882-1.379-6.113-3.598c-0.905-1.631-1.121-3.518-0.606-5.311
				c0.514-1.795,1.695-3.279,3.326-4.186c1.036-0.574,2.206-0.877,3.384-0.877c2.538,0,4.88,1.377,6.113,3.596
				c1.867,3.367,0.647,7.627-2.719,9.496C95.792,282.965,94.622,283.268,93.444,283.268z"/>
			<path fill="#010101" d="M93.434,270.797c1.928,0,3.798,1.02,4.802,2.824c1.468,2.648,0.513,5.986-2.136,7.457
				c-0.843,0.469-1.756,0.689-2.656,0.689c-1.929,0-3.799-1.02-4.801-2.826c-1.47-2.646-0.513-5.986,2.135-7.455
				C91.621,271.02,92.534,270.797,93.434,270.797 M93.434,267.797L93.434,267.797c-1.432,0-2.854,0.369-4.111,1.064
				c-1.982,1.102-3.417,2.906-4.041,5.084c-0.625,2.182-0.362,4.473,0.738,6.451c1.494,2.695,4.339,4.371,7.424,4.371
				c1.432,0,2.853-0.369,4.11-1.064c4.09-2.271,5.572-7.445,3.305-11.535C99.361,269.471,96.517,267.797,93.434,267.797
				L93.434,267.797z"/>
		</g>
		<g>
			<path fill="#482F14" d="M93.183,270.807c0.407,0.383,0.764,0.83,1.049,1.344c1.47,2.65,0.515,5.988-2.135,7.457
				c-0.764,0.426-1.586,0.643-2.404,0.68c1.692,1.584,4.272,1.977,6.407,0.793c2.648-1.473,3.604-4.811,2.136-7.457
				C97.189,271.736,95.198,270.717,93.183,270.807z"/>
		</g>
	</g>
	<g>
		<path fill="#916527" d="M48.05,242.022c-2.637,0-5.069-1.432-6.346-3.733c-0.94-1.692-1.165-3.651-0.631-5.515
			c0.534-1.862,1.761-3.405,3.456-4.344l34.206-18.959c1.074-0.597,2.289-0.912,3.512-0.912c2.636,0,5.067,1.432,6.346,3.733
			c1.939,3.497,0.673,7.921-2.821,9.862L51.564,241.11C50.489,241.708,49.274,242.022,48.05,242.022z"/>
		<g>
			<path fill="#010101" d="M82.246,210.061c2.022,0,3.983,1.067,5.035,2.961c1.541,2.779,0.539,6.279-2.238,7.822l-34.206,18.955
				c-0.884,0.49-1.842,0.725-2.786,0.725c-2.023,0-3.984-1.068-5.034-2.963c-1.543-2.776-0.54-6.278,2.239-7.817l34.206-18.959
				C80.345,210.293,81.302,210.061,82.246,210.061 M82.247,207.061L82.247,207.061c-1.478,0-2.944,0.381-4.241,1.101L43.802,227.12
				c-2.045,1.133-3.526,2.994-4.17,5.242s-0.373,4.611,0.763,6.656c1.541,2.777,4.475,4.506,7.657,4.506
				c1.478,0,2.944-0.381,4.241-1.102l34.205-18.954c4.22-2.344,5.747-7.683,3.408-11.901
				C88.361,208.787,85.427,207.061,82.247,207.061L82.247,207.061z"/>
		</g>
	</g>
	<path fill="#67441A" d="M79.461,210.784l-8.863,4.912c3.13-0.133,6.369,6.201,6.209,9.713l8.235-4.564
		c2.777-1.543,3.779-5.043,2.238-7.822C85.739,210.245,82.238,209.243,79.461,210.784z"/>
	<g>
		<path fill="#753F1A" d="M79.403,269.807c-10.891,0-19.751-8.859-19.751-19.751c0-10.892,8.86-19.752,19.751-19.752
			c10.891,0,19.752,8.86,19.752,19.752C99.155,260.947,90.294,269.807,79.403,269.807z"/>
		<g>
			<path fill="#010101" d="M79.403,231.803c10.08,0,18.252,8.172,18.252,18.252c0,10.08-8.172,18.251-18.252,18.251
				c-10.079,0-18.251-8.172-18.251-18.251C61.152,239.975,69.324,231.803,79.403,231.803 M79.403,228.803
				c-11.718,0-21.251,9.533-21.251,21.252c0,11.718,9.533,21.251,21.251,21.251c11.718,0,21.252-9.533,21.252-21.251
				C100.655,238.336,91.121,228.803,79.403,228.803L79.403,228.803z"/>
		</g>
	</g>
	<path fill="#502B13" d="M97.655,250.055c0-0.033-0.004-0.068-0.004-0.102c-5.883,8.953-16.234,9.57-22.869,5.59
		c-7.067-4.238-8.847-12.209-7.813-18.822c-3.572,3.332-5.817,8.064-5.817,13.334c0,10.08,8.172,18.251,18.251,18.251
		C89.483,268.307,97.655,260.135,97.655,250.055z"/>
</g>
<g>
</g>
<g>
</g>
<g>
</g>
<g>
</g>
<g>
</g>
<g>
</g>
</svg>
